<?xml version="1.0" encoding="UTF-8"?><svg id="Layer_1" xmlns="http://www.w3.org/2000/svg" viewBox="0 0 334.7276 199.99988"><defs><style>.cls-1{fill:#d2f740;}</style></defs><g id="envzero-payoff"><path class="cls-1" d="M24.20999,147.59888c13.3664,0,23.5799,8.85001,23.58,23.58v5.325H8.57227c.62965,9.306,6.32612,16.44501,15.81542,16.44501,6.8667,0,12.1974-3.703,14.1856-9.573h8.7656c-2.0775,9.75699-11.1116,16.62399-22.9512,16.62399-14.6357,0-24.38769-10.392-24.38769-26.198.00003-15.806,9.93599-26.198,24.20999-26.198v-.005ZM228.7466,147.59888c13.366,0,23.57899,8.85001,23.57999,23.58v5.325h-39.213c.629,9.306,6.326,16.44501,15.80501,16.44501,6.86699,0,12.198-3.703,14.18599-9.573h8.76601c-2.078,9.75699-11.112,16.62399-22.952,16.62399-14.63501,0-24.38701-10.397-24.38701-26.198h.009c0-15.985,9.936-26.198,24.21001-26.198l-.004-.005ZM310.06158,147.59888c13.73801,0,24.66602,9.49001,24.66602,26.198s-10.92801,26.198-24.66602,26.198c-13.73898,0-24.66599-9.48999-24.66599-26.198s10.927-26.198,24.66599-26.198ZM200.75259,155.28387l-.005.005-28.905,36.134v.084h30.899v7.13499h-42.004v-6.327h-.01001l28.99901-36.13901v-.084h-27.18901v-7.13499h38.21501v6.327ZM79.68949,147.59888c10.4781.002,16.8027,7.49901,16.8027,21.22501v29.81299h-8.126v-29c-.0001-10.74899-4.6955-14.814-11.2051-14.81499-7.05019,0-13.9072,4.87999-13.9072,16.89299v26.922h-8.1367v-49.685h7.9482v9.30701h.1836c2.9791-6.593,8.763-10.659,16.4405-10.66ZM267.6116,157.61388l-.005.005h.18298c2.35501-5.24001,5.05801-8.672,13.005-8.672h5.79102v7.22899h-6.87701c-8.30899,0-11.92801,4.97301-11.92801,14.453v28.008h-8.13699v-49.685l.01102-.009h7.957v8.67101ZM122.42159,188.61087h.085l14.368-39.66399h8.944l-19.14799,49.685h-8.403l-19.14751-49.685h8.9335l14.368,39.66399ZM310.06158,154.64987c-9.03299,0-16.168,6.50401-16.168,19.147s7.13501,19.147,16.168,19.147,16.168-6.504,16.168-19.147-7.13498-19.147-16.168-19.147ZM24.48239,154.63988c-9.2119,0-14.6309,6.504-15.72165,14.908h30.53615c0-8.85001-5.6026-14.908-14.8145-14.908ZM229.02359,154.63988c-9.21201,0-14.636,6.504-15.722,14.908h30.536c0-8.85001-5.60199-14.908-14.814-14.908ZM138.01459,99.25878h-31.057l14.84-25.707h31.062l-14.845,25.707ZM213.12759,99.25878h-63.69901l14.84399-25.707h63.70001l-14.845,25.707ZM191.78859,62.49028h-63.58501l14.843-25.7071h63.58101l-14.839,25.7071ZM138.01459,25.70708h-31.057L121.79759,0h31.062l-14.845,25.70708ZM213.12759,25.70708h-63.69901L164.27258,0h63.70001l-14.845,25.70708ZM245.11758,1.13086h-2.98v7.91211h-1.25999V1.13086h-2.974V0h7.21399v1.13086ZM250.4426,7.90821h.11299l2.31601-7.90821h2.28099v9.03809h-1.28V1.13086h-.114l-2.30099,7.91211h-1.938l-2.295-7.91211h-.134v7.91211h-1.245V0h2.28099l2.31601,7.90821Z"/></g></svg>