<?xml version="1.0" encoding="UTF-8"?><svg id="Layer_1" xmlns="http://www.w3.org/2000/svg" viewBox="0 0 151.18903 101.26648"><defs><style>.cls-1{fill:#d2f740;}</style></defs><g id="envzero-logomark"><polygon class="cls-1" points="15.1416 75.03711 0 101.26648 31.68652 101.26648 46.8291 75.03711 15.1416 75.03711"/><polygon class="cls-1" points="46.8291 0 15.1416 0 0 26.22949 31.68652 26.22949 46.8291 0"/><polygon class="cls-1" points="43.33112 101.26648 108.31903 101.26648 123.461 75.03711 58.47357 75.03711 43.33112 101.26648"/><polygon class="cls-1" points="86.54791 63.75879 101.68903 37.5293 36.81738 37.5293 21.6748 63.75879 86.54791 63.75879"/><polygon class="cls-1" points="148.86401 0 146.50104 8.07031 146.38599 8.07031 144.02203 0 141.69702 0 141.69702 9.22369 142.96503 9.22369 142.96503 1.15332 143.10004 1.15332 145.44403 9.22369 147.42303 9.22369 149.76801 1.15332 149.883 1.15332 149.883 9.22369 151.18903 9.22369 151.18903 0 148.86401 0"/><polygon class="cls-1" points="133.58801 1.15332 136.62402 1.15332 136.62402 9.22369 137.91101 9.22369 137.91101 1.15332 140.94702 1.15332 140.94702 0 133.58801 0 133.58801 1.15332"/><polygon class="cls-1" points="43.33112 26.22949 108.31903 26.22949 123.461 0 58.47357 0 43.33112 26.22949"/></g></svg>